<svg width="608" height="100" viewBox="0 0 608 100" fill="none" xmlns="http://www.w3.org/2000/svg">
  <path
    fill="white"
    d="M174.8 82.2H189.7L194.9 53.6C197.2 40.5 191.1 32.8 179.8 32.8C173.2 32.8 167.5 35.7 163.7 39.8L164.9 33.3H149.9L141 82.2H156L160.8 55.7C162.1 49 166.4 45.3 172.1 45.3C177.8 45.3 180.8 49 179.6 55.7L174.8 82.2ZM201.5 57.6C198.7 73 206.5 82.9 218.4 82.9C225.7 82.9 231.5 79.5 235 75.2L233.7 82.2H248.7L257.6 33.3H242.6L241.3 40.2C239.5 35.9 234.9 32.6 227.7 32.6C215.7 32.6 204.4 42.2 201.5 57.6ZM238.2 57.7C236.7 65.5 231 69.8 225.3 69.8C219.7 69.8 215.4 65.4 216.8 57.6C218.2 49.8 224.1 45.6 229.7 45.6C235.4 45.6 239.6 49.9 238.2 57.7ZM260.1 82.2H275L283.9 33.3H269L260.1 82.2ZM277.4 28.2C282.7 28.2 286.9 24.6 287.7 20.1C288.6 15.6 285.6 12 280.4 12C275 12 270.8 15.6 269.9 20.1C269.1 24.6 272.1 28.2 277.4 28.2ZM290.3 33.3L298.8 82.2H317.3L343.5 33.3H327.5L310.6 68.1L306.3 33.3H290.3ZM369.5 44.6C374.5 44.6 378.1 47.6 377.2 53H358.4C360.3 47.6 364.6 44.6 369.5 44.6ZM389 66H373C371.3 68.6 368.6 70.7 364.4 70.7C359.6 70.7 356.2 67.7 356.8 61.3H390.7C391.2 59.8 391.5 58.3 391.8 56.9C394.5 42 386.1 32.6 371.8 32.6C357.3 32.6 345.4 42.2 342.6 57.7C339.7 73.2 348.3 82.9 362.7 82.9C374.9 82.9 384.9 75.5 389 66ZM396.6 82.2H411.6L418.2 45.7H426.3L428.5 33.3H420.5V32.8C421.5 27.7 423.8 25.9 429.5 26.3L431.8 13.6C417.1 12.8 408.1 19.1 405.7 31.9L405.5 33.3H400L397.8 45.7H403.2L396.6 82.2ZM478.4 57.8C481.2 42.3 471.9 32.6 457.6 32.6C443.3 32.6 430.4 42.3 427.6 57.8C424.8 73.3 433.9 82.9 448.3 82.9C462.6 82.9 475.6 73.3 478.4 57.8ZM442.8 57.8C444.4 49.4 449.8 45.6 455.2 45.6C460.5 45.6 464.7 49.4 463.2 57.8C461.7 66 456 69.9 450.6 69.9C445.2 69.9 441.3 66 442.8 57.8ZM501.2 59.5C502.8 51.1 507.3 48.7 514.4 48.7H518.5L521.4 32.8C514.9 32.8 508.9 36.3 504.5 41.5L506 33.3H491L482.1 82.2H497.1L501.2 59.5ZM586.5 82.2H601.4L606.6 53.6C609 40.5 602.6 32.8 590.5 32.8C583.4 32.8 576.5 36.7 572.3 41.9C570.1 36 564.7 32.8 557.4 32.8C551 32.8 545.5 35.5 541.9 39.5L543 33.3H528L519.1 82.2H534.1L538.9 55.7C540.1 49.3 544.4 45.8 550.1 45.8C555.8 45.8 558.8 49.3 557.7 55.7L552.8 82.2H567.7L572.6 55.7C573.7 49.3 578 45.8 583.7 45.8C589.4 45.8 592.5 49.3 591.3 55.7L586.5 82.2Z" />
  <path fill-rule="evenodd" clip-rule="evenodd" d="M0 99.4H26.7L44.2 0H14.2L0 99.4Z"
    fill="#ff6b35" />
  <path fill-rule="evenodd" clip-rule="evenodd" d="M73.4 0L109.3 73.5L121.9 0H73.4Z"
    fill="#ff6b35" />
  <path fill-rule="evenodd" clip-rule="evenodd" d="M55.9 99.4H91L65.9 46.8L55.9 99.4Z"
    fill="#ff6b35" />
</svg>